<svg width="145" height="52" viewBox="0 0 145 52" fill="none" xmlns="http://www.w3.org/2000/svg">
<path fill-rule="evenodd" clip-rule="evenodd" d="M18 8C8.058 8 0 16.0595 0 26C0 35.9405 8.058 44 18 44C27.9405 44 36 35.9405 36 26C36 16.0595 27.9405 8 18 8ZM18.21 36.527C12.408 36.527 7.71 31.817 7.71 26C7.71 20.183 12.408 15.473 18.21 15.473C21.045 15.473 23.415 16.5185 25.233 18.2165L22.272 21.1835V21.1775C21.1695 20.1245 19.7715 19.5845 18.21 19.5845C14.745 19.5845 11.9295 22.5185 11.9295 25.994C11.9295 29.4665 14.745 32.4095 18.21 32.4095C21.354 32.4095 23.493 30.6065 23.934 28.1315H18.21V24.026H28.0875C28.2195 24.731 28.29 25.466 28.29 26.237C28.29 32.252 24.2745 36.527 18.21 36.527Z" fill="black"/>
<path fill-rule="evenodd" clip-rule="evenodd" d="M108 28.1005C108 37.0495 114.68 44.491 123.417 46V32.9995H118.792V28H123.417V23.9995C123.417 19.4995 126.397 17.0005 130.612 17.0005C131.947 17.0005 133.387 17.2 134.722 17.3995V22H132.358C130.097 22 129.583 23.0995 129.583 24.5005V28H134.517L133.695 32.9995H129.583V46C138.32 44.491 145 37.051 145 28.1005C145 18.145 136.675 10 126.5 10C116.325 10 108 18.145 108 28.1005Z" fill="black"/>
<path d="M72 45.5C66.6072 45.5 61.9575 43.5717 58.1853 39.767C54.4132 35.9732 52.5 31.3408 52.5 26C52.5 20.6093 54.4153 15.9597 58.1918 12.1875C61.9618 8.41533 66.6093 6.5 72 6.5C77.343 6.5 81.9753 8.41317 85.767 12.1853C89.5695 15.9597 91.5 20.6093 91.5 26C91.5 31.3408 89.5717 35.9753 85.7713 39.7735C81.9775 43.5717 77.3452 45.5 72 45.5ZM72 10.8333C67.7403 10.8333 64.226 12.2785 61.2577 15.2533C58.2807 18.226 56.8333 21.7403 56.8333 26C56.8333 30.212 58.2807 33.7177 61.2598 36.7142C64.2325 39.7107 67.7447 41.1667 72 41.1667C76.2098 41.1667 79.7133 39.7085 82.7055 36.7098C85.7085 33.7112 87.1667 30.2055 87.1667 26C87.1667 21.7468 85.7107 18.2325 82.7142 15.2598C79.7177 12.2807 76.2142 10.8333 72 10.8333ZM65.5 31.4167C62.5122 31.4167 60.0833 28.9878 60.0833 26C60.0833 23.0122 62.5122 20.5833 65.5 20.5833C68.4878 20.5833 70.9167 23.0122 70.9167 26C70.9167 28.9878 68.4878 31.4167 65.5 31.4167ZM65.5 22.75C63.7082 22.75 62.25 24.2082 62.25 26C62.25 27.7918 63.7082 29.25 65.5 29.25C67.2918 29.25 68.75 27.7918 68.75 26C68.75 24.2082 67.2918 22.75 65.5 22.75ZM78.5 31.4167C75.5122 31.4167 73.0833 28.9878 73.0833 26C73.0833 23.0122 75.5122 20.5833 78.5 20.5833C81.4878 20.5833 83.9167 23.0122 83.9167 26C83.9167 28.9878 81.4878 31.4167 78.5 31.4167Z" fill="black"/>
</svg>
